<svg xmlns="http://www.w3.org/2000/svg" version="1.1" xmlns:xlink="http://www.w3.org/1999/xlink" xmlns:svgjs="http://svgjs.dev/svgjs" width="1000" height="1000" viewBox="0 0 1000 1000"><rect width="1000" height="1000" fill="#000000"></rect><g transform="matrix(0.7,0,0,0.7,149.57575998023304,282.1265587044535)"><svg viewBox="0 0 396 247" data-background-color="#836f6f" preserveAspectRatio="xMidYMid meet" height="623" width="1000" xmlns="http://www.w3.org/2000/svg" xmlns:xlink="http://www.w3.org/1999/xlink"><g id="tight-bounds" transform="matrix(1,0,0,1,0.23999863975387825,-0.09999999999999432)"><svg viewBox="0 0 395.52 247.2" height="247.2" width="395.52"><g><svg></svg></g><g><svg viewBox="0 0 395.52 247.2" height="247.2" width="395.52"><g><g><path xmlns="http://www.w3.org/2000/svg" d="M28.066 74.918c5.55-6.756 11.649-12.615 18.298-17.575 6.622-4.96 13.687-8.821 21.195-11.582 7.507-2.735 15.215-4.102 23.124-4.102 9.25 0 16.449 1.944 21.597 5.831 5.175 3.888 7.762 9.317 7.761 16.288 0 2.681-0.362 5.429-1.086 8.244-0.751 2.815-1.823 5.59-3.217 8.325-1.421 2.762-3.07 5.416-4.947 7.963-0.576 0.782-1.172 1.533-1.785 2.252l-13.137 0c-0.121-0.118-0.241-0.239-0.36-0.362-2.547-2.601-4.156-5.644-4.826-9.129 4.692-3.888 8.419-7.949 11.18-12.186 2.735-4.209 4.102-8.057 4.102-11.542 0-5.898-3.687-8.848-11.059-8.848-3.083 0-6.26 0.63-9.531 1.891-3.298 1.287-6.622 3.07-9.974 5.348-3.351 2.279-6.596 5.027-9.733 8.245-3.164 3.217-6.086 6.77-8.767 10.657-3.673 5.285-6.984 10.594-9.933 15.926l-29.722 0c3.205-5.554 6.811-10.769 10.82-15.644zM28.951 156.879c0 9.92 1.542 17.896 4.624 23.929 3.083 6.032 7.172 9.585 12.267 10.658 5.764-1.341 13.07-5.027 21.918-11.06 8.848-6.032 18.5-13.875 28.956-23.527 1.341 1.341 2.145 2.748 2.413 4.223-3.888 5.094-7.909 9.987-12.065 14.679-4.156 4.692-8.271 8.982-12.347 12.869-4.102 3.888-8.124 7.306-12.065 10.256-3.968 2.949-7.628 5.228-10.979 6.837-16.623-0.268-29.224-5.027-37.804-14.277-7.598-8.192-11.832-19.801-12.701-34.828h27.783c0 0.08 0 0.161 0 0.241zM208.92 65.386c7.373-7.507 14.143-13.339 20.31-17.494 6.167-4.156 11.529-6.234 16.086-6.233 1.743 0 3.66 0.67 5.751 2.01 2.064 1.341 4.008 3.083 5.832 5.229 1.796 2.145 3.298 4.451 4.504 6.917 1.206 2.493 1.81 4.88 1.81 7.158-8.311 2.681-16.462 6.193-24.452 10.537-7.963 4.37-15.591 9.397-22.883 15.081-0.831 0.649-1.658 1.305-2.481 1.971l-26.388 0c7.628-9.677 14.932-18.069 21.911-25.176zM195.246 165.606c3.754 5.845 7.775 11.247 12.065 16.208 4.29 4.96 8.647 8.915 13.071 11.864-0.67 1.475-1.81 2.882-3.419 4.222-1.609 1.341-3.351 2.587-5.228 3.74-1.877 1.126-3.847 2.024-5.912 2.695-2.091 0.67-4.008 1.005-5.751 1.005-3.485 0-6.703-1.635-9.652-4.906-2.949-3.298-5.925-8.271-8.928-14.92-3.03-6.622-6.18-14.867-9.451-24.734-0.452-1.35-0.911-2.73-1.377-4.142h19.138c1.736 3.044 3.551 6.033 5.444 8.968zM130.699 206.346c-5.094-1.206-9.317-3.311-12.669-6.314-3.351-3.03-6.435-6.823-9.249-11.382 1.206-2.547 2.654-5.898 4.343-10.054 1.662-4.156 3.7-9.29 6.113-15.403 0.812-2.047 1.676-4.232 2.594-6.555h22.182c-1.331 3.758-2.551 7.418-3.662 10.979-4.156 13.352-7.373 26.261-9.652 38.729zM151.129 78.537c1.26-4.746 2.493-10.001 3.7-15.765 1.206-5.764 2.614-13.07 4.222-21.918 5.63 1.072 10.765 3.552 15.403 7.44 4.612 3.888 8.593 8.58 11.945 14.076-1.475 1.877-3.177 4.719-5.108 8.526-1.957 3.834-4.142 8.432-6.555 13.794-0.847 1.883-1.728 3.84-2.641 5.872l-24.679 0c1.411-4.072 2.649-8.08 3.713-12.025zM258.99 179.602c2.011-4.424 4.424-10.121 7.239-17.092 0.773-1.914 1.556-3.871 2.349-5.872l22.049 0c-1.288 3.314-2.41 6.344-3.365 9.089-3.432 9.786-5.148 16.556-5.148 20.309 1.877 0.67 4.156 1.139 6.837 1.408 2.681 0.268 5.563 0.402 8.647 0.402 10.858 0 21.154-2.52 30.886-7.561 9.706-5.014 18.218-11.743 25.538-20.188 0.974-1.128 1.921-2.281 2.84-3.459l24.271 0c-3.814 6.797-8.293 13.044-13.438 18.741-8.258 9.116-17.816 16.395-28.674 21.838-10.858 5.416-22.253 8.124-34.184 8.123-10.993 0-20.403-2.172-28.232-6.515-7.856-4.37-13.727-10.778-17.615-19.223zM300.896 70.212c2.091-6.032 3.606-10.657 4.544-13.874-8.445 3.485-15.684 8.781-21.717 15.885-4.38 5.159-7.983 11.272-10.808 18.339h-13.369c-1.416-2.212-2.406-4.773-2.969-7.681 1.341-6.167 3.861-11.797 7.561-16.891 3.673-5.094 8.325-9.451 13.955-13.071 5.63-3.619 12.132-6.408 19.505-8.365 7.373-1.93 15.282-2.896 23.728-2.895 10.724 0 20.578 1.568 29.559 4.705 8.982 3.164 16.69 7.561 23.124 13.191 6.435 5.63 11.462 12.4 15.082 20.309 1.558 3.404 2.781 6.97 3.668 10.698h-15.311c-0.897-11.524-5.127-20.653-12.688-27.388-8.58-7.641-20.175-11.462-34.788-11.461-6.703 0-13.07 0.938-19.103 2.815 5.898 2.145 10.791 4.397 14.679 6.756 3.888 2.333 6.569 4.169 8.044 5.51-1.072 1.475-2.641 4.089-4.706 7.842-2.091 3.754-4.504 8.311-7.239 13.674-0.382 0.741-0.766 1.492-1.154 2.252l-26.857 0c2.79-7.576 5.21-14.359 7.26-20.35z" fill="#000000" fill-rule="nonzero" stroke="none" stroke-width="1" stroke-linecap="butt" stroke-linejoin="miter" stroke-miterlimit="10" stroke-dasharray="" stroke-dashoffset="0" font-family="none" font-weight="none" font-size="none" text-anchor="none" style="mix-blend-mode: normal" data-fill-palette-color="tertiary"></path></g></g><g transform="matrix(1,0,0,1,0,98.02550630337535)"><svg viewBox="0 0 395.52 51.148987393249286" height="51.148987393249286" width="395.52"><g><svg viewBox="0 0 395.52 51.148987393249286" height="51.148987393249286" width="395.52"><g><svg viewBox="0 0 395.52 51.148987393249286" height="51.148987393249286" width="395.52"><g><svg viewBox="0 0 395.52 51.148987393249286" height="51.148987393249286" width="395.52"><g><svg viewBox="0 0 395.52 51.148987393249286" height="51.148987393249286" width="395.52"><g><svg viewBox="0 0 395.52 51.148987393249286" height="51.148987393249286" width="395.52"><g transform="matrix(1,0,0,1,0,0)"><svg width="395.52" viewBox="7.099999904632568 -41.599998474121094 368.80999755859375 47.69999694824219" height="51.148987393249286" data-palette-color="#000000"><path d="M7.1-9.8L7.1-9.8Q7.1-13.3 7.93-16.68 8.75-20.05 10.25-23.08 11.75-26.1 13.83-28.63 15.9-31.15 18.38-33 20.85-34.85 23.65-35.88 26.45-36.9 29.4-36.9L29.4-36.9Q32.85-36.9 34.77-35.45 36.7-34 36.7-31.4L36.7-31.4Q36.7-30.4 36.43-29.35 36.15-28.3 35.63-27.28 35.1-26.25 34.4-25.3 33.7-24.35 32.85-23.65L32.85-23.65Q31.55-23.85 30.6-24.83 29.65-25.8 29.4-27.1L29.4-27.1Q31.15-28.55 32.18-30.13 33.2-31.7 33.2-33L33.2-33Q33.2-35.2 30.45-35.2L30.45-35.2Q29.3-35.2 28.08-34.73 26.85-34.25 25.6-33.4 24.35-32.55 23.18-31.35 22-30.15 21-28.7L21-28.7Q14.05-18.7 14.05-8.25L14.05-8.25Q14.05-4.55 15.2-2.3 16.35-0.05 18.25 0.35L18.25 0.35Q20.4-0.15 23.7-2.4 27-4.65 30.9-8.25L30.9-8.25Q31.4-7.75 31.5-7.2L31.5-7.2Q30.05-5.3 28.5-3.55 26.95-1.8 25.43-0.35 23.9 1.1 22.43 2.2 20.95 3.3 19.7 3.9L19.7 3.9Q13.5 3.8 10.3 0.35 7.1-3.1 7.1-9.8ZM34.75-3.2L34.75-3.2Q34.75-5.4 35.8-9.38 36.85-13.35 38.75-18.65L38.75-18.65Q41.85-27.1 44.57-32.73 47.3-38.35 49.9-41.5L49.9-41.5Q50.5-41.4 51.37-41 52.25-40.6 53.1-40.13 53.95-39.65 54.62-39.15 55.3-38.65 55.5-38.35L55.5-38.35Q51.6-33.75 48.65-28.45 45.7-23.15 43.25-16.3L43.25-16.3Q41.15-10.4 40.05-5.68 38.95-0.95 38.95 2.2L38.95 2.2Q38.95 3.05 38.95 3.25 38.95 3.45 39 3.65L39 3.65Q38.3 3.55 37.8 3.3 37.3 3.05 37.15 2.7L37.15 2.7Q37.05 2.45 36.6 1.98 36.15 1.5 35.8 1.25L35.8 1.25Q35.35 0.95 35.05-0.33 34.75-1.6 34.75-3.2ZM52.3 1.75L52.3 1.75Q49.45 1.45 47.75-0.75 46.05-2.95 46.05-6.35L46.05-6.35Q46.05-8.35 46.65-10.5 47.25-12.65 48.34-14.68 49.45-16.7 50.95-18.5 52.45-20.3 54.2-21.6L54.2-21.6Q56.95-23.65 59.34-23.65L59.34-23.65Q60.95-22.8 62.5-20.1L62.5-20.1Q62.75-20.1 62.95-20.13 63.15-20.15 63.4-20.15L63.4-20.15Q66.05-20.15 66.05-15.45L66.05-15.45Q66.05-12.3 65.02-9.47 64-6.65 62.17-4.35 60.34-2.05 57.82-0.48 55.3 1.1 52.3 1.75ZM54.84-14L54.84-14Q54-12.85 53.25-11.5 52.5-10.15 51.95-8.78 51.4-7.4 51.09-6.13 50.8-4.85 50.8-3.85L50.8-3.85Q50.8-2.65 51.2-1.55 51.59-0.45 52.09-0.3L52.09-0.3Q54.34-0.8 56.22-2.18 58.09-3.55 59.47-5.6 60.84-7.65 61.62-10.25 62.4-12.85 62.4-15.8L62.4-15.8Q62.4-17.1 62.25-17.85 62.09-18.6 61.75-19.15L61.75-19.15Q59.55-18.5 57.82-17.05 56.09-15.6 54.84-14ZM73.74-19.15L70.89-19.15Q70.64-19.45 70.44-20.43 70.24-21.4 70.24-22.1L70.24-22.1Q71.54-22 72.74-21.93 73.94-21.85 74.94-21.8L74.94-21.8Q75.69-23.3 76.57-24.78 77.44-26.25 78.27-27.48 79.09-28.7 79.82-29.55 80.54-30.4 80.94-30.65L80.94-30.65Q81.44-30.65 82.22-30.48 82.99-30.3 83.79-30.03 84.59-29.75 85.24-29.45 85.89-29.15 86.14-28.85L86.14-28.85Q84.64-26.95 83.57-25.33 82.49-23.7 81.24-21.6L81.24-21.6Q82.24-21.6 83.27-21.65 84.29-21.7 85.34-21.8L85.34-21.8Q85.59-21.55 85.74-21.18 85.89-20.8 85.89-20.4L85.89-20.4Q83.44-19.5 79.94-19.4L79.94-19.4Q78.69-17 77.72-14.63 76.74-12.25 76.07-10.05 75.39-7.85 75.02-5.9 74.64-3.95 74.64-2.4L74.64-2.4Q74.64-0.2 76.29 0.05L76.29 0.05Q77.79-0.15 79.14-0.7 80.49-1.25 81.54-2.1L81.54-2.1Q81.84-1.65 81.89-1.35L81.89-1.35Q81.59-0.9 80.87-0.3 80.14 0.3 79.29 0.88 78.44 1.45 77.64 1.85 76.84 2.25 76.44 2.3L76.44 2.3Q75.19 2.25 73.94 1.75 72.69 1.25 71.67 0.5 70.64-0.25 69.99-1.18 69.34-2.1 69.34-3L69.34-3Q69.34-4.2 69.67-6.03 69.99-7.85 70.59-10 71.19-12.15 71.99-14.5 72.79-16.85 73.74-19.15L73.74-19.15ZM85.49-0.85L85.49-0.85Q85.49-2.6 85.84-4.98 86.19-7.35 86.86-10.05 87.54-12.75 88.47-15.7 89.39-18.65 90.54-21.6L90.54-21.6Q91.54-24.25 92.86-26.95 94.19-29.65 95.74-32.25 97.29-34.85 98.97-37.2 100.64-39.55 102.34-41.5L102.34-41.5Q103.14-41.5 104.06-41.3 104.99-41.1 105.86-40.78 106.74-40.45 107.47-40 108.19-39.55 108.64-39.1L108.64-39.1Q104.89-35.25 101.89-31.33 98.89-27.4 97.14-23.95L97.14-23.95Q96.19-22.05 95.41-20.4 94.64-18.75 93.99-17.13 93.34-15.5 92.81-13.88 92.29-12.25 91.84-10.45L91.84-10.45Q101.44-22.7 106.09-22.7L106.09-22.7Q107.39-22.7 108.89-21.85 110.39-21 111.54-19.55L111.54-19.55Q109.99-17.85 108.34-15.45 106.69-13.05 105.31-10.63 103.94-8.2 103.06-6.13 102.19-4.05 102.19-3.05L102.19-3.05Q102.19-2.55 102.34-2.38 102.49-2.2 102.99-2.2L102.99-2.2Q103.74-2.2 104.19-2.4 104.64-2.6 104.74-2.6L104.74-2.6Q104.99-2.2 105.04-2.05 105.09-1.9 105.09-1.8L105.09-1.8Q105.09-1.6 104.49-1.23 103.89-0.85 103.06-0.48 102.24-0.1 101.44 0.2 100.64 0.5 100.24 0.5L100.24 0.5Q99.74 0.5 99.24 0.23 98.74-0.05 98.36-0.5 97.99-0.95 97.77-1.5 97.54-2.05 97.54-2.65L97.54-2.65Q97.54-3.4 97.97-4.88 98.39-6.35 99.14-8.33 99.89-10.3 100.94-12.65 101.99-15 103.19-17.45L103.19-17.45Q103.19-17.65 102.99-17.65L102.99-17.65Q102.84-17.65 102.22-17.25 101.59-16.85 101.04-16.45L101.04-16.45Q99.24-15.1 97.41-13.13 95.59-11.15 93.86-8.8 92.14-6.45 90.61-3.83 89.09-1.2 87.99 1.45L87.99 1.45Q87.84 1.8 87.54 2.1 87.24 2.4 87.04 2.4L87.04 2.4Q86.89 2.4 86.61 2.05 86.34 1.7 86.11 1.18 85.89 0.65 85.69 0.1 85.49-0.45 85.49-0.85ZM129.29-20.7L129.29-20.7Q129.09-17.6 128.19-15.38 127.29-13.15 125.61-11.48 123.94-9.8 121.54-8.45 119.14-7.1 115.94-5.85L115.94-5.85Q115.94-5.55 115.91-5.23 115.89-4.9 115.89-4.55L115.89-4.55Q115.89-3.9 115.99-3.2 116.09-2.5 116.34-1.9 116.59-1.3 117.04-0.93 117.49-0.55 118.19-0.55L118.19-0.55Q119.54-0.55 120.84-1.15 122.14-1.75 123.31-2.63 124.49-3.5 125.51-4.53 126.54-5.55 127.34-6.4L127.34-6.4Q127.84-5.95 128.19-5.55L128.19-5.55Q125.94-2.55 123.26-0.58 120.59 1.4 118.19 1.95L118.19 1.95Q114.74 1.55 112.81-0.58 110.89-2.7 110.89-5.7L110.89-5.7Q110.89-7.75 111.46-9.88 112.04-12 113.06-13.98 114.09-15.95 115.46-17.7 116.84-19.45 118.41-20.75 119.99-22.05 121.66-22.8 123.34-23.55 124.99-23.55L124.99-23.55Q127.29-23.25 129.29-20.7ZM125.84-19.05L125.84-19.05Q124.49-18.85 123.04-17.95 121.59-17.05 120.31-15.55 119.04-14.05 117.99-12.05 116.94-10.05 116.34-7.75L116.34-7.75Q120.34-9.75 122.99-12.68 125.64-15.6 125.84-19.05ZM148.84-19.9L148.84-19.9Q148.78-18.95 148.51-17.93 148.24-16.9 147.84-16.07 147.44-15.25 146.99-14.7 146.53-14.15 146.13-14.15L146.13-14.15Q145.59-14.2 145.49-14.9L145.49-14.9Q145.49-15.05 145.61-15.38 145.74-15.7 145.88-16.1 146.03-16.5 146.16-16.9 146.28-17.3 146.28-17.6L146.28-17.6Q146.28-18.3 145.96-18.78 145.63-19.25 145.09-19.25L145.09-19.25Q143.09-19.25 142.03-16.75 140.99-14.25 140.99-9.4L140.99-9.4Q140.99-8.9 141.03-8.8L141.03-8.8Q142.09-8.85 142.91-8.88 143.74-8.9 144.53-8.9L144.53-8.9Q144.59-8.8 144.59-8.5L144.59-8.5Q144.59-8.05 144.38-7.85L144.38-7.85Q143.24-7.6 142.56-7.43 141.88-7.25 141.53-7.1 141.19-6.95 141.11-6.78 141.03-6.6 141.03-6.3L141.03-6.3Q141.03-5.9 141.06-5.5 141.09-5.1 141.09-4.5L141.09-4.5Q141.09-0.3 138.81 2.25 136.53 4.8 132.49 5.2L132.49 5.2Q131.78 5.15 131.03 4.8 130.28 4.45 129.61 3.9 128.94 3.35 128.44 2.68 127.94 2 127.73 1.3L127.73 1.3Q127.73-0.6 128.53-2.33 129.34-4.05 130.71-5.38 132.09-6.7 133.96-7.53 135.84-8.35 138.03-8.5L138.03-8.5Q138.03-9.75 137.78-10.95 137.53-12.15 137.26-13.28 136.99-14.4 136.74-15.48 136.49-16.55 136.49-17.6L136.49-17.6Q136.49-18.95 137.03-20.28 137.59-21.6 138.49-22.73 139.38-23.85 140.59-24.65 141.78-25.45 143.09-25.75L143.09-25.75Q143.63-25.6 144.56-24.88 145.49-24.15 146.38-23.25 147.28-22.35 147.99-21.43 148.69-20.5 148.84-19.9ZM132.34 2.9L132.34 2.9Q133.53 2.4 134.61 1.45 135.69 0.5 136.49-0.7 137.28-1.9 137.76-3.25 138.24-4.6 138.24-5.9L138.24-5.9Q137.24-5.75 136.03-4.98 134.84-4.2 133.78-3.13 132.74-2.05 132.03-0.9 131.34 0.25 131.34 1.1L131.34 1.1Q131.34 2.2 132.34 2.9ZM172.63-15.85L172.63-15.85Q175.73-20.45 178.75-24.33 181.78-28.2 184.53-31 187.28-33.8 189.58-35.35 191.88-36.9 193.58-36.9L193.58-36.9Q194.23-36.9 195-36.4 195.78-35.9 196.46-35.1 197.13-34.3 197.58-33.38 198.03-32.45 198.03-31.6L198.03-31.6Q194.93-30.6 191.96-28.98 188.98-27.35 186.25-25.23 183.53-23.1 181.06-20.5 178.58-17.9 176.58-14.95L176.58-14.95Q177.38-12.9 178.56-10.58 179.73-8.25 181.13-6.08 182.53-3.9 184.13-2.05 185.73-0.2 187.38 0.9L187.38 0.9Q187.13 1.45 186.53 1.95 185.93 2.45 185.23 2.88 184.53 3.3 183.75 3.55 182.98 3.8 182.33 3.8L182.33 3.8Q181.03 3.8 179.93 2.58 178.83 1.35 177.71-1.13 176.58-3.6 175.36-7.28 174.13-10.95 172.63-15.85ZM165.08 4.05L165.08 4.05Q163.18 3.6 161.93 2.48 160.68 1.35 159.63-0.35L159.63-0.35Q160.08-1.3 160.71-2.85 161.33-4.4 162.23-6.68 163.13-8.95 164.38-12.13 165.63-15.3 167.28-19.55L167.28-19.55Q168.33-22.25 169-24.1 169.68-25.95 170.16-27.73 170.63-29.5 171.08-31.65 171.53-33.8 172.13-37.1L172.13-37.1Q174.23-36.7 175.96-35.25 177.68-33.8 178.93-31.75L178.93-31.75Q178.38-31.05 177.66-29.63 176.93-28.2 176.03-26.2 175.13-24.2 174.03-21.75 172.93-19.3 171.73-16.55L171.73-16.55Q169.03-10.55 167.48-5.58 165.93-0.6 165.08 4.05ZM191.78-3.35L191.78-3.35Q191.78-3.8 191.85-4.48 191.93-5.15 192.13-6.28 192.33-7.4 192.65-9 192.98-10.6 193.48-12.85L193.48-12.85Q193.58-13.35 193.93-14.45 194.28-15.55 194.85-16.78 195.43-18 196.25-19.15 197.08-20.3 198.23-20.85L198.23-20.85Q199.08-20.65 200.48-19.83 201.88-19 202.88-17.55L202.88-17.55Q201.73-16.25 200.95-14.95 200.18-13.65 199.55-12.25 198.93-10.85 198.4-9.35 197.88-7.85 197.23-6.2L197.23-6.2Q196.68-4.8 196.23-3.33 195.78-1.85 195.73-0.75L195.73-0.75Q195.73 0.15 195.7 0.53 195.68 0.9 195.43 0.9L195.43 0.9Q195.23 0.9 194.63 0.65 194.03 0.4 193.4-0.13 192.78-0.65 192.28-1.45 191.78-2.25 191.78-3.35ZM201.33-25.05L201.33-25.05Q201.33-25.35 201.48-25.95L201.48-25.95Q201.23-26.2 201.05-26.7 200.88-27.2 200.88-27.6L200.88-27.6Q200.88-28.05 201-28.83 201.13-29.6 201.33-30.5 201.53-31.4 201.83-32.38 202.13-33.35 202.43-34.15L202.43-34.15Q203.03-34.15 203.9-33.83 204.78-33.5 205.68-32.98 206.58-32.45 207.33-31.83 208.08-31.2 208.48-30.65L208.48-30.65Q207.93-30.1 207.03-29.13 206.13-28.15 205.28-27.08 204.43-26 203.73-25.05 203.03-24.1 202.83-23.7L202.83-23.7Q202.23-23.8 201.78-24.23 201.33-24.65 201.33-25.05ZM218.97-2.6L218.97-2.6Q219.72-4.25 220.77-6.85 221.82-9.45 222.97-12.48 224.12-15.5 225.32-18.68 226.52-21.85 227.57-24.7 228.62-27.55 229.4-29.8 230.17-32.05 230.52-33.25L230.52-33.25Q227.37-31.95 225.12-29.3 222.87-26.65 221.72-22.65L221.72-22.65Q220.57-23.05 219.62-24.08 218.67-25.1 218.37-26.65L218.37-26.65Q218.87-28.95 220.25-30.85 221.62-32.75 223.72-34.1 225.82-35.45 228.57-36.18 231.32-36.9 234.47-36.9L234.47-36.9Q238.47-36.9 241.82-35.73 245.17-34.55 247.57-32.45 249.97-30.35 251.32-27.4 252.67-24.45 252.67-20.85L252.67-20.85Q252.67-15.95 250.87-11.5 249.07-7.05 246-3.65 242.92-0.25 238.87 1.78 234.82 3.8 230.37 3.8L230.37 3.8Q226.27 3.8 223.35 2.18 220.42 0.55 218.97-2.6ZM236.62-34.4L236.62-34.4Q234.12-34.4 231.87-33.7L231.87-33.7Q234.07-32.9 235.52-32.02 236.97-31.15 237.52-30.65L237.52-30.65Q237.12-30.1 236.35-28.7 235.57-27.3 234.55-25.3 233.52-23.3 232.37-20.93 231.22-18.55 230.12-16.05L230.12-16.05Q227.27-9.7 226-6.05 224.72-2.4 224.72-1L224.72-1Q225.42-0.75 226.42-0.65 227.42-0.55 228.57-0.55L228.57-0.55Q232.62-0.55 236.25-2.43 239.87-4.3 242.6-7.45 245.32-10.6 246.9-14.78 248.47-18.95 248.47-23.55L248.47-23.55Q248.47-28.7 245.27-31.55 242.07-34.4 236.62-34.4ZM267.62-1.1L267.62-1.1Q266.67-1.9 266.35-3.1 266.02-4.3 266.02-5.15L266.02-5.15Q266.02-6.2 266.27-6.95L266.27-6.95Q266.07-6.95 265.37-6.15 264.67-5.35 263.85-4.25 263.02-3.15 262.22-2.1 261.42-1.05 261.02-0.55L261.02-0.55Q260.37 0.15 259.8 0.55 259.22 0.95 258.87 1L258.87 1Q258.07 0.95 257.2 0.68 256.32 0.4 255.55-0.1 254.77-0.6 254.2-1.3 253.62-2 253.42-2.9L253.42-2.9Q253.42-4.3 253.5-5.2 253.57-6.1 253.82-7.15L253.82-7.15Q254.27-9.05 255.15-11.45 256.02-13.85 257.17-16.18 258.32-18.5 259.75-20.53 261.17-22.55 262.77-23.7L262.77-23.7Q263.22-23.7 263.82-23.63 264.42-23.55 265.05-23.35 265.67-23.15 266.25-22.88 266.82-22.6 267.22-22.15L267.22-22.15Q266.77-21.65 264.95-18.8 263.12-15.95 260.87-10.6L260.87-10.6Q260.62-10.05 260.27-9 259.92-7.95 259.57-6.8 259.22-5.65 259-4.55 258.77-3.45 258.77-2.8L258.77-2.8Q258.77-2.4 258.9-2.2 259.02-2 259.12-1.9L259.12-1.9Q259.87-2.2 261.02-3.55 262.17-4.9 264.22-7.7L264.22-7.7Q264.72-8.4 265.4-9.3 266.07-10.2 266.77-11.23 267.47-12.25 268.1-13.35 268.72-14.45 269.12-15.55L269.12-15.55Q269.32-16.15 269.65-16.98 269.97-17.8 270.45-18.7 270.92-19.6 271.55-20.53 272.17-21.45 273.02-22.25L273.02-22.25Q273.67-22.25 274.42-22.1 275.17-21.95 275.85-21.73 276.52-21.5 277.02-21.23 277.52-20.95 277.77-20.65L277.77-20.65Q276.87-18.45 275.77-16.3 274.67-14.15 273.72-12.08 272.77-10 272.12-7.95 271.47-5.9 271.47-3.95L271.47-3.95Q271.47-2.9 271.65-2.13 271.82-1.35 272.02-0.83 272.22-0.3 272.4 0.05 272.57 0.4 272.57 0.65L272.57 0.65Q272.57 0.7 272.47 0.8L272.47 0.8Q272.42 0.85 272.37 0.85L272.37 0.85Q272.02 0.85 271.47 0.7 270.92 0.55 270.25 0.28 269.57 0 268.9-0.35 268.22-0.7 267.62-1.1ZM278.82-4.7L278.82-4.7Q278.82-6.5 279.74-9.7 280.67-12.9 282.17-16.7 283.67-20.5 285.57-24.55 287.47-28.6 289.39-32.1 291.32-35.6 293.09-38.15 294.87-40.7 296.12-41.6L296.12-41.6Q296.82-41.55 297.64-41 298.47-40.45 299.17-39.68 299.87-38.9 300.34-38.05 300.82-37.2 300.82-36.5L300.82-36.5Q298.57-34.7 296.24-31.88 293.92-29.05 291.82-25.68 289.72-22.3 287.94-18.53 286.17-14.75 284.97-11.1L284.97-11.1Q286.57-13.85 288.32-16.1 290.07-18.35 291.82-19.95 293.57-21.55 295.24-22.43 296.92-23.3 298.42-23.35L298.42-23.35Q300.62-21.75 300.62-19.1L300.62-19.1Q300.62-17.5 299.97-15.88 299.32-14.25 298.24-12.88 297.17-11.5 295.79-10.53 294.42-9.55 292.92-9.25L292.92-9.25Q293.42-7.5 294.19-5.7 294.97-3.9 296.04-2.2 297.12-0.5 298.49 0.95 299.87 2.4 301.62 3.4L301.62 3.4Q301.37 3.9 300.87 4.4 300.37 4.9 299.67 5.28 298.97 5.65 298.14 5.88 297.32 6.1 296.52 6.1L296.52 6.1Q295.17 6.1 293.99 4.75 292.82 3.4 291.87 0.85L291.87 0.85Q291.12-1.2 290.42-4.05 289.72-6.9 289.17-10L289.17-10Q289.87-10.45 290.92-11.33 291.97-12.2 293.12-13.35L293.12-13.35Q297.52-17.6 297.52-20.7L297.52-20.7Q297.52-21.1 296.97-21.1L296.97-21.1Q295.97-21.05 294.62-20.15 293.27-19.25 291.74-17.65 290.22-16.05 288.64-13.9 287.07-11.75 285.62-9.25L285.62-9.25Q285.02-8.25 284.52-6.95 284.02-5.65 283.64-4.28 283.27-2.9 283.07-1.55 282.87-0.2 282.87 0.95L282.87 0.95Q282.87 1.65 283.02 2.1L283.02 2.1Q281.47 1.95 281.12 1.3L281.12 1.3Q280.72 0.7 280.44 0.33 280.17-0.05 279.87-0.3L279.87-0.3Q279.42-0.65 279.12-1.8 278.82-2.95 278.82-4.7ZM320.62-20.2L320.62-20.2Q321.12-20.2 321.79-20.03 322.47-19.85 323.02-19.58 323.57-19.3 323.94-19 324.32-18.7 324.32-18.45L324.32-18.45Q323.32-16.35 322.47-14.23 321.62-12.1 321.02-10.15 320.42-8.2 320.09-6.5 319.77-4.8 319.77-3.55L319.77-3.55Q319.77-2.15 320.07-1.23 320.37-0.3 321.07 0.1L321.07 0.1Q320.47 0.5 319.52 0.75 318.57 1 317.82 1L317.82 1Q315.12 1 315.12-2.7L315.12-2.7Q315.12-5.55 317.02-10.5L317.02-10.5Q316.02-8.2 314.72-6.18 313.42-4.15 312.07-2.6 310.72-1.05 309.34-0.08 307.97 0.9 306.82 1.1L306.82 1.1Q304.97 1 303.82-0.68 302.67-2.35 302.67-4.95L302.67-4.95Q302.67-7.75 303.87-10.85 305.07-13.95 306.94-16.6 308.82-19.25 311.02-21.03 313.22-22.8 315.27-22.9L315.27-22.9Q315.77-22.75 316.39-22.3 317.02-21.85 317.59-21.25 318.17-20.65 318.57-20.03 318.97-19.4 319.02-18.95L319.02-18.95Q317.02-18.65 314.89-17 312.77-15.35 311.04-13.03 309.32-10.7 308.22-8.05 307.12-5.4 307.12-3.1L307.12-3.1Q307.12-2.15 307.82-1.9L307.82-1.9Q309.27-2.2 311.17-4.38 313.07-6.55 315.77-11.1L315.77-11.1Q316.27-12 316.89-13.1 317.52-14.2 318.17-15.4 318.82-16.6 319.44-17.82 320.07-19.05 320.62-20.2ZM343.86-20.2L343.86-20.2Q344.36-20.2 345.04-20.03 345.71-19.85 346.26-19.58 346.81-19.3 347.19-19 347.56-18.7 347.56-18.45L347.56-18.45Q346.56-16.35 345.71-14.23 344.86-12.1 344.26-10.15 343.66-8.2 343.34-6.5 343.01-4.8 343.01-3.55L343.01-3.55Q343.01-2.15 343.31-1.23 343.61-0.3 344.31 0.1L344.31 0.1Q343.71 0.5 342.76 0.75 341.81 1 341.06 1L341.06 1Q338.36 1 338.36-2.7L338.36-2.7Q338.36-5.55 340.26-10.5L340.26-10.5Q339.26-8.2 337.96-6.18 336.66-4.15 335.31-2.6 333.96-1.05 332.59-0.08 331.21 0.9 330.06 1.1L330.06 1.1Q328.21 1 327.06-0.68 325.91-2.35 325.91-4.95L325.91-4.95Q325.91-7.75 327.11-10.85 328.31-13.95 330.19-16.6 332.06-19.25 334.26-21.03 336.46-22.8 338.51-22.9L338.51-22.9Q339.01-22.75 339.64-22.3 340.26-21.85 340.84-21.25 341.41-20.65 341.81-20.03 342.21-19.4 342.26-18.95L342.26-18.95Q340.26-18.65 338.14-17 336.01-15.35 334.29-13.03 332.56-10.7 331.46-8.05 330.36-5.4 330.36-3.1L330.36-3.1Q330.36-2.15 331.06-1.9L331.06-1.9Q332.51-2.2 334.41-4.38 336.31-6.55 339.01-11.1L339.01-11.1Q339.51-12 340.14-13.1 340.76-14.2 341.41-15.4 342.06-16.6 342.69-17.82 343.31-19.05 343.86-20.2ZM358.21-24.25L358.21-24.25Q359.51-23.85 360.66-22.48 361.81-21.1 362.36-19.45L362.36-19.45Q361.81-18.1 360.66-16.2 359.51-14.3 358.36-12.33 357.21-10.35 356.29-8.58 355.36-6.8 355.21-5.65L355.21-5.65Q356.01-6.5 356.99-7.63 357.96-8.75 358.89-9.88 359.81-11 360.61-11.93 361.41-12.85 361.86-13.3L361.86-13.3Q362.81-14.3 364.11-15.63 365.41-16.95 366.84-18.13 368.26-19.3 369.71-20.13 371.16-20.95 372.36-20.95L372.36-20.95Q373.66-20.95 374.54-20.08 375.41-19.2 375.91-18.25L375.91-18.25Q375.91-18.15 375.54-17.98 375.16-17.8 374.46-17L374.46-17Q373.76-16.1 372.89-14.53 372.01-12.95 371.19-11.13 370.36-9.3 369.81-7.4 369.26-5.5 369.26-3.95L369.26-3.95Q369.26-2.7 369.59-2.35 369.91-2 370.51-2L370.51-2Q371.06-2 371.66-2.25 372.26-2.5 372.61-2.5L372.61-2.5Q372.81-2.4 372.94-2.08 373.06-1.75 373.06-1.5L373.06-1.5Q372.66-1.15 372.11-0.8 371.56-0.45 370.96-0.15 370.36 0.15 369.79 0.35 369.21 0.55 368.76 0.55L368.76 0.55Q367.31 0.55 366.39 0.13 365.46-0.3 364.94-1 364.41-1.7 364.21-2.68 364.01-3.65 364.01-4.75L364.01-4.75Q364.01-5.35 364.11-6.1 364.21-6.85 364.51-7.88 364.81-8.9 365.36-10.33 365.91-11.75 366.76-13.75L366.76-13.75Q366.66-13.75 365.41-13.05 364.16-12.35 362.71-10.9L362.71-10.9Q360.36-8.65 358.49-6.45 356.61-4.25 354.66-1.55L354.66-1.55Q353.56 0 352.74 1.07 351.91 2.15 351.31 2.5L351.31 2.5Q350.26 1.9 349.76 0.83 349.26-0.25 349.01-1.4L349.01-1.4Q349.01-2.35 349.29-3.8 349.56-5.25 350.04-7.03 350.51-8.8 351.21-10.75 351.91-12.7 352.76-14.65L352.76-14.65Q354.66-19.05 356.24-21.55 357.81-24.05 358.21-24.25Z" opacity="1" transform="matrix(1,0,0,1,0,0)" fill="#ffffff" class="undefined-text-0" data-fill-palette-color="primary" id="text-0"></path></svg></g></svg></g></svg></g></svg></g></svg></g></svg></g></svg></g></svg></g><defs></defs></svg><rect width="395.52" height="247.2" fill="none" stroke="none" visibility="hidden"></rect></g></svg></g></svg>